<svg xmlns="http://www.w3.org/2000/svg" viewBox="0 0 1280 780" width="1280" height="780" font-family="'Liberation Sans', 'Helvetica Neue', Helvetica, Arial, sans-serif">
<rect x="0" y="0" width="1280" height="780" fill="#ffffff"/>

<defs>
  <filter id="soft" x="-20%" y="-20%" width="140%" height="140%">
    <feDropShadow dx="0" dy="1.4" stdDeviation="1.8" flood-color="#1c2836" flood-opacity="0.16"/>
  </filter>
  <marker id="mFil" markerWidth="11" markerHeight="11" refX="8.2" refY="4" orient="auto" markerUnits="userSpaceOnUse">
    <path d="M0.5,0.6 L8.6,4 L0.5,7.4 Z" fill="#33556f"/>
  </marker>
  <marker id="mCon" markerWidth="12" markerHeight="12" refX="8.4" refY="4.2" orient="auto" markerUnits="userSpaceOnUse">
    <path d="M1,1 L8.8,4.2 L1,7.4" fill="none" stroke="#c7922f" stroke-width="1.5" stroke-linecap="round" stroke-linejoin="round"/>
  </marker>
  <marker id="mEnv" markerWidth="11" markerHeight="11" refX="8.2" refY="4" orient="auto" markerUnits="userSpaceOnUse">
    <path d="M0.5,0.6 L8.6,4 L0.5,7.4 Z" fill="#2e7d74"/>
  </marker>
  <marker id="mLec" markerWidth="12" markerHeight="12" refX="8.4" refY="4.2" orient="auto" markerUnits="userSpaceOnUse">
    <path d="M1,1 L8.8,4.2 L1,7.4" fill="none" stroke="#3d7c54" stroke-width="1.5" stroke-linecap="round" stroke-linejoin="round"/>
  </marker>
  <marker id="mCoeA" markerWidth="11" markerHeight="11" refX="8.2" refY="4" orient="auto" markerUnits="userSpaceOnUse">
    <path d="M0.5,0.6 L8.6,4 L0.5,7.4 Z" fill="#b0533e"/>
  </marker>
  <marker id="mCoeB" markerWidth="11" markerHeight="11" refX="2.6" refY="4" orient="auto" markerUnits="userSpaceOnUse">
    <path d="M8.6,0.6 L0.5,4 L8.6,7.4 Z" fill="#b0533e"/>
  </marker>
  <marker id="mTra" markerWidth="9" markerHeight="9" refX="4.5" refY="4.5" orient="auto" markerUnits="userSpaceOnUse">
    <path d="M4.5,0.8 L8.2,4.5 L4.5,8.2 L0.8,4.5 Z" fill="#7e5aa6"/>
  </marker>
</defs>

<text x="34" y="40" font-size="19" font-weight="700" fill="#23303e">Branche 2 — différenciation, coévolution et inventaire accessible</text>
<path d="M257.0,355 L323.0,355" fill="none" stroke="#33556f" stroke-width="2.4" stroke-linecap="round" marker-end="url(#mFil)"/>
<path d="M537.0,347 C510,250 565.0,250 605.0,250" fill="none" stroke="#33556f" stroke-width="2.4" stroke-linecap="round" marker-end="url(#mFil)"/>
<path d="M537.0,363 C510,460 565.0,460 605.0,460" fill="none" stroke="#33556f" stroke-width="2.4" stroke-linecap="round" marker-end="url(#mFil)"/>
<path d="M819.0,250 C792,250 845.0,347 885.0,347" fill="none" stroke="#33556f" stroke-width="2.4" stroke-linecap="round" marker-end="url(#mFil)"/>
<path d="M819.0,460 C792,460 845.0,363 885.0,363" fill="none" stroke="#33556f" stroke-width="2.4" stroke-linecap="round" marker-end="url(#mFil)"/>
<text x="589.0" y="300.0" text-anchor="middle" font-size="10.5" font-style="italic" fill="#33556f" stroke="#ffffff" stroke-width="3.2" paint-order="stroke" stroke-linejoin="round">précoce</text>
<text x="589.0" y="430.0" text-anchor="middle" font-size="10.5" font-style="italic" fill="#33556f" stroke="#ffffff" stroke-width="3.2" paint-order="stroke" stroke-linejoin="round">tardive</text>
<path d="M968,385.0 L968,602.0" fill="none" stroke="#33556f" stroke-width="2.4" stroke-linecap="round" marker-end="url(#mFil)"/>
<path d="M1018,385.0 L1018,602.0" fill="none" stroke="#b0533e" stroke-width="2.2" stroke-linecap="round" marker-end="url(#mCoeA)" marker-start="url(#mCoeB)"/>
<text x="1112.0" y="487.5" text-anchor="start" font-size="10.5" font-style="italic" fill="#b0533e" stroke="#ffffff" stroke-width="3.2" paint-order="stroke" stroke-linejoin="round">coévolution :</text>
<text x="1112.0" y="502.5" text-anchor="start" font-size="10.5" font-style="italic" fill="#b0533e" stroke="#ffffff" stroke-width="3.2" paint-order="stroke" stroke-linejoin="round">dégazage, échanges</text>
<text x="1112.0" y="517.5" text-anchor="start" font-size="10.5" font-style="italic" fill="#b0533e" stroke="#ffffff" stroke-width="3.2" paint-order="stroke" stroke-linejoin="round">avec l'intérieur</text>
<path d="M885.0,632 L707.0,632" fill="none" stroke="#33556f" stroke-width="2.4" stroke-linecap="round" marker-end="url(#mFil)"/>
<path d="M493.0,632 L296.0,632" fill="none" stroke="#3d7c54" stroke-width="1.7" stroke-linecap="round" stroke-dasharray="1.5 4" marker-end="url(#mLec)"/>
<path d="M885.0,361 C732,395 218,492 178,582" fill="none" stroke="#3d7c54" stroke-width="1.7" stroke-linecap="round" stroke-dasharray="1.5 4" marker-end="url(#mLec)"/>
<rect x="884" y="470" width="216" height="50" rx="11" fill="#fcf3e1" stroke="#c7922f" stroke-width="2" stroke-dasharray="6 4" filter="url(#soft)"/>
<text x="992.0" y="491.0" text-anchor="middle" font-size="14.5" font-weight="600" fill="#7c581a">Impacts, capture</text>
<text x="992.0" y="509.0" text-anchor="middle" font-size="11" fill="#9a7430">apports externes</text>
<path d="M992.0,520 C992.0,538 992,584.0 992,600.0" fill="none" stroke="#c7922f" stroke-width="1.8" stroke-linecap="round" stroke-dasharray="6 4" marker-end="url(#mCon)"/>
<path d="M992,662.0 L992,696.0" fill="none" stroke="#33556f" stroke-width="1.8" stroke-linecap="round" marker-end="url(#mFil)"/>
<text x="1000.0" y="692.0" text-anchor="start" font-size="10.5" font-style="italic" fill="#33556f" stroke="#ffffff" stroke-width="3.2" paint-order="stroke" stroke-linejoin="round">échappement, pertes</text>
<rect x="236" y="150" width="220" height="52" rx="11" fill="#fcf3e1" stroke="#c7922f" stroke-width="2" stroke-dasharray="6 4" filter="url(#soft)"/>
<text x="346.0" y="172.0" text-anchor="middle" font-size="14.5" font-weight="600" fill="#7c581a">Provenance NC / CC</text>
<text x="346.0" y="190.0" text-anchor="middle" font-size="11" fill="#9a7430">degré de mélange</text>
<path d="M346.0,202 C346.0,232 410,295.0 410,323.0" fill="none" stroke="#c7922f" stroke-width="1.8" stroke-linecap="round" stroke-dasharray="6 4" marker-end="url(#mCon)"/>
<rect x="486" y="150" width="236" height="52" rx="11" fill="#fcf3e1" stroke="#c7922f" stroke-width="2" stroke-dasharray="6 4" filter="url(#soft)"/>
<text x="604.0" y="164.0" text-anchor="middle" font-size="14.5" font-weight="600" fill="#7c581a">²⁶Al — chauffage</text>
<text x="604.0" y="180.0" text-anchor="middle" font-size="14.5" font-weight="600" fill="#7c581a">radiogénique</text>
<text x="604.0" y="198.0" text-anchor="middle" font-size="11" fill="#9a7430">condition, non état matériel</text>
<path d="M564.0,202 C564.0,232 450,295.0 450,323.0" fill="none" stroke="#c7922f" stroke-width="1.8" stroke-linecap="round" stroke-dasharray="6 4" marker-end="url(#mCon)"/>
<rect x="43.0" y="325.0" width="214" height="60" rx="11" fill="#eaf0f7" stroke="#33556f" stroke-width="2" filter="url(#soft)"/>
<text x="150.0" y="351.0" text-anchor="middle" font-size="14.5" font-weight="600" fill="#22303f">Planétésimaux</text>
<text x="150.0" y="369.0" text-anchor="middle" font-size="11" fill="#4b6076">provenance et date</text>
<path d="M332.0,325.0 L528.0,325.0 L537.0,334.0 L537.0,376.0 L528.0,385.0 L332.0,385.0 L323.0,376.0 L323.0,334.0 Z" fill="#f4ecdd" stroke="#9a7736" stroke-width="2" filter="url(#soft)"/>
<text x="430.0" y="351.0" text-anchor="middle" font-size="14.5" font-weight="600" fill="#5a4620">Accrétion + chauffage</text>
<text x="430.0" y="369.0" text-anchor="middle" font-size="11" fill="#7c6534">histoire thermique</text>
<rect x="605.0" y="220.0" width="214" height="60" rx="11" fill="#eaf0f7" stroke="#33556f" stroke-width="2" filter="url(#soft)"/>
<text x="712.0" y="246.0" text-anchor="middle" font-size="14.5" font-weight="600" fill="#22303f">Accrétion précoce</text>
<text x="712.0" y="264.0" text-anchor="middle" font-size="11" fill="#4b6076">fusion, différenciation</text>
<rect x="605.0" y="430.0" width="214" height="60" rx="11" fill="#eaf0f7" stroke="#33556f" stroke-width="2" filter="url(#soft)"/>
<text x="712.0" y="456.0" text-anchor="middle" font-size="14.5" font-weight="600" fill="#22303f">Accrétion tardive</text>
<text x="712.0" y="474.0" text-anchor="middle" font-size="11" fill="#4b6076">primitifs préservés</text>
<rect x="885.0" y="325.0" width="214" height="60" rx="11" fill="#eaf0f7" stroke="#33556f" stroke-width="2" filter="url(#soft)"/>
<text x="992.0" y="351.0" text-anchor="middle" font-size="14.5" font-weight="600" fill="#22303f">Réservoirs différenciés</text>
<text x="992.0" y="369.0" text-anchor="middle" font-size="11" fill="#4b6076">noyau, manteau, croûte</text>
<rect x="885.0" y="602.0" width="214" height="60" rx="11" fill="#eaf0f7" stroke="#33556f" stroke-width="2" filter="url(#soft)"/>
<text x="992.0" y="628.0" text-anchor="middle" font-size="14.5" font-weight="600" fill="#22303f">Enveloppes mobiles</text>
<text x="992.0" y="646.0" text-anchor="middle" font-size="11" fill="#4b6076">atmosphère + hydrosphère</text>
<rect x="493.0" y="602.0" width="214" height="60" rx="11" fill="#eaf0f7" stroke="#33556f" stroke-width="2" filter="url(#soft)"/>
<text x="600.0" y="628.0" text-anchor="middle" font-size="14.5" font-weight="600" fill="#22303f">Interfaces réactives</text>
<text x="600.0" y="646.0" text-anchor="middle" font-size="11" fill="#4b6076">gradients, cycles</text>
<rect x="60" y="584" width="236" height="96" rx="11" fill="#e9f3ec" stroke="#3d7c54" stroke-width="2" stroke-dasharray="2 4" filter="url(#soft)"/>
<text x="178.0" y="621.5" text-anchor="middle" font-size="14.5" font-weight="600" fill="#234b31">Inventaire accessible</text>
<text x="178.0" y="639.5" text-anchor="middle" font-size="11" fill="#3d6b4b">stock · flux · contrefactuel —</text>
<text x="178.0" y="652.5" text-anchor="middle" font-size="11" fill="#3d6b4b">mesure dérivée, non une étape</text>
</svg>
